<svg width="40" height="41" viewBox="0 0 40 41" fill="none" xmlns="http://www.w3.org/2000/svg">
<path d="M20.3548 1.16675C22.8965 1.16675 25.4131 1.66694 27.7613 2.63846C30.1095 3.61005 32.2435 5.03413 34.0407 6.82939C35.838 8.62466 37.2637 10.7562 38.2363 13.1019C39.2089 15.4474 39.7097 17.9613 39.7097 20.5001C39.7097 23.0389 39.2089 25.5527 38.2363 27.8983C37.2637 30.2439 35.838 32.3755 34.0407 34.1708C32.2435 35.966 30.1095 37.3901 27.7613 38.3617C25.4131 39.3332 22.8965 39.8334 20.3548 39.8334C17.8132 39.8334 15.2966 39.3332 12.9484 38.3617C10.6002 37.3901 8.46621 35.966 6.66895 34.1708C4.87168 32.3755 3.44602 30.2439 2.47335 27.8983C1.50075 25.5527 1 23.0389 1 20.5001C1 17.9613 1.50075 15.4474 2.47335 13.1019C3.44602 10.7562 4.87168 8.62466 6.66895 6.82939C8.46621 5.03413 10.6002 3.61005 12.9484 2.63846C15.2966 1.66694 17.8132 1.16675 20.3548 1.16675ZM20.3548 5.21325C18.3452 5.21325 16.355 5.60856 14.4983 6.37674C12.6416 7.14497 10.9545 8.27122 9.53342 9.69069C8.11237 11.1102 6.98488 12.7954 6.21579 14.65C5.44675 16.5047 5.051 18.4927 5.051 20.5001C5.051 22.5075 5.44675 24.4955 6.21579 26.3501C6.98488 28.2047 8.11237 29.89 9.53342 31.3095C10.9545 32.7289 12.6416 33.8552 14.4983 34.6234C16.355 35.3916 18.3452 35.7869 20.3548 35.7869C22.3644 35.7869 24.3543 35.3915 26.2109 34.6234C28.0677 33.8552 29.7552 32.729 31.1763 31.3095C32.5973 29.89 33.7248 28.2047 34.4939 26.3501C35.2629 24.4955 35.6587 22.5075 35.6587 20.5001C35.6587 18.4927 35.2629 16.5051 34.4939 14.6505C33.7248 12.7958 32.5973 11.1102 31.1763 9.69069C29.7552 8.27122 28.0681 7.14498 26.2114 6.37674C24.3547 5.60856 22.3645 5.21325 20.3548 5.21325ZM24.4063 16.4531L35.3548 20.5001L24.4063 24.5471L20.3548 35.4834L16.3034 24.5471L5.35484 20.5001L16.3034 16.4531L20.3548 5.51675L24.4063 16.4531Z" fill="#F0F0F0"/>
</svg>
