<svg width="291" height="80" viewBox="0 0 291 80" fill="none" xmlns="http://www.w3.org/2000/svg">
<path d="M26.8203 13.3334C30.3422 13.3334 33.8296 14.0233 37.0835 15.3633C40.3375 16.7034 43.2945 18.6677 45.785 21.1439C48.2755 23.6202 50.2511 26.5603 51.5989 29.7956C52.9467 33.0309 53.6406 36.4983 53.6406 40C53.6406 43.5018 52.9467 46.9692 51.5989 50.2045C50.2511 53.4398 48.2755 56.3799 45.785 58.8562C43.2945 61.3324 40.3375 63.2966 37.0835 64.6368C33.8296 65.9768 30.3422 66.6667 26.8203 66.6667C23.2983 66.6667 19.8109 65.9768 16.5571 64.6368C13.3031 63.2966 10.346 61.3324 7.85554 58.8562C5.36505 56.3799 3.38949 53.4398 2.04164 50.2045C0.693898 46.9692 0 43.5018 0 40C5.12596e-07 36.4983 0.693898 33.0309 2.04164 29.7956C3.38949 26.5603 5.36505 23.6201 7.85554 21.1439C10.346 18.6677 13.3031 16.7034 16.5571 15.3633C19.8109 14.0233 23.2983 13.3334 26.8203 13.3334ZM26.8203 18.9148C24.0355 18.9148 21.2776 19.46 18.7048 20.5196C16.132 21.5792 13.7941 23.1326 11.8249 25.0905C9.85571 27.0484 8.29333 29.3729 7.22759 31.931C6.16193 34.4891 5.61353 37.2312 5.61353 40C5.61353 42.7689 6.16193 45.5109 7.22759 48.0691C8.29333 50.6272 9.85571 52.9517 11.8249 54.9095C13.7941 56.8674 16.1319 58.4209 18.7048 59.4805C21.2776 60.5401 24.0355 61.0853 26.8203 61.0853C29.605 61.0853 32.3624 60.54 34.9351 59.4805C37.508 58.4209 39.8464 56.8675 41.8157 54.9095C43.7848 52.9517 45.3472 50.6272 46.413 48.0691C47.4786 45.5109 48.027 42.7689 48.027 40C48.027 37.2313 47.4785 34.4897 46.413 31.9317C45.3472 29.3735 43.7849 27.0485 41.8157 25.0905C39.8465 23.1326 37.5086 21.5792 34.9358 20.5196C32.3629 19.46 29.6051 18.9148 26.8203 18.9148ZM32.4345 34.418L47.606 40L32.4345 45.5821L26.8203 60.6667L21.2061 45.5821L6.03456 40L21.2061 34.418L26.8203 19.3334L32.4345 34.418ZM107.616 26.6667C115.864 26.6667 121.362 30.6347 121.362 40.0293C121.362 49.3655 115.864 53.3334 107.616 53.3334C99.3692 53.3334 93.871 49.3655 93.871 40.0293C93.871 30.6347 99.3691 26.6667 107.616 26.6667ZM227.83 26.6667C236.961 26.6668 241.382 32.0936 241.382 41.4297V42.1882H221.053V42.2468C221.053 44.6392 223.12 48.2566 227.83 48.2566C230.617 48.2565 232.587 47.1479 233.596 44.989H240.998C238.98 50.8824 234.173 53.3333 227.83 53.3334C219.467 53.3334 213.892 49.3655 213.892 40.0293C213.892 30.6347 219.467 26.6667 227.83 26.6667ZM277.777 26.6667C286.686 26.6667 291 32.0935 291 41.4297V42.1882H271.166V42.2468C271.166 44.6392 273.182 48.2564 277.777 48.2566C280.497 48.2566 282.419 47.148 283.404 44.989H290.625C288.655 50.8825 283.966 53.3334 277.777 53.3334C269.619 53.3333 264.18 49.3654 264.18 40.0293C264.18 30.6348 269.619 26.6668 277.777 26.6667ZM82.2261 27.3334C85.7829 27.3334 91.1889 28.9604 91.1889 36.2233V52.6667H84.3601V38.6635C84.3601 35.2355 82.8425 33.6088 79.7602 33.6088C76.5829 33.6088 73.8796 35.4679 73.8795 40.7552V52.6667H67.0507V27.9727H73.6425V31.5749H73.7374C74.9705 29.4832 78.2427 27.3334 82.2261 27.3334ZM138.973 27.3334C139.776 27.3334 140.674 27.3915 141.477 27.5658V35.1771C140.201 34.7704 138.973 34.4219 137.697 34.4219C133.068 34.4219 130.847 37.2113 130.847 42.0339V52.6667H124.044V27.9727H130.611V32.795H130.705C133.162 29.0182 135.099 27.3334 138.973 27.3334ZM158.342 27.3334C165.747 27.3334 168.968 32.3911 168.968 40C168.968 47.6089 165.636 52.6666 158.861 52.6667H144.829V27.3334H158.342ZM202.849 27.3334C207.053 27.3334 211.21 29.4254 211.21 35.933V52.6667H204.282V37.8503C204.282 34.5384 202.084 33.6088 200.078 33.6088C197.211 33.6088 194.87 35.4098 194.87 39.3028V52.6667H187.989V37.8503C187.989 34.5384 185.744 33.6088 183.833 33.6088C180.871 33.6089 178.53 35.4099 178.53 39.3028V52.6667H171.65V27.9727H178.291V31.5749H178.386C179.628 29.4832 182.925 27.3334 186.939 27.3334C190.952 27.3334 193.15 29.1928 194.201 31.9818C196.112 29.0185 199.026 27.3334 202.849 27.3334ZM258.994 27.3334C259.797 27.3334 260.695 27.3915 261.498 27.5658V35.1771C260.222 34.7704 258.994 34.4219 257.718 34.4219C253.088 34.4219 250.868 37.2113 250.868 42.0339V52.6667H244.065V27.9727H250.631V32.795H250.726C253.182 29.0182 255.12 27.3334 258.994 27.3334ZM150.716 47.8327H157.269C161.156 47.8327 162.896 45.1023 162.896 39.7761C162.896 35.0765 161.193 32.1674 156.713 32.1674H150.716V47.8327ZM107.616 32.4434C103.398 32.4434 100.934 35.1278 100.934 40.0293C100.934 44.8724 103.398 47.5567 107.616 47.5567C111.835 47.5567 114.299 44.8724 114.299 40.0293C114.299 35.1278 111.835 32.4434 107.616 32.4434ZM227.685 31.7435C222.207 31.7437 221.053 36.6438 221.053 37.2865V37.3451H234.222V37.2865C234.222 35.9442 232.731 31.7435 227.685 31.7435ZM277.637 31.7435C272.292 31.7435 271.167 36.6438 271.166 37.2865V37.3451H284.013V37.2865C284.013 35.9442 282.56 31.7437 277.637 31.7435Z" fill="#F0F0F0"/>
</svg>
