<svg width="698" height="698" viewBox="0 0 698 698" fill="none" xmlns="http://www.w3.org/2000/svg">
<path d="M355.192 12.1348C399.478 12.1348 443.328 20.8505 484.243 37.7783C525.159 54.7075 562.342 79.5208 593.658 110.802C624.484 141.594 649.036 178.065 665.962 218.182L666.762 220.095C683.709 260.964 692.434 304.766 692.434 349.002C692.434 393.238 683.709 437.04 666.762 477.909C649.815 518.779 624.974 555.92 593.658 587.201C562.342 618.482 525.159 643.295 484.243 660.225C443.328 677.152 399.478 685.868 355.192 685.868C310.907 685.868 267.055 677.153 226.14 660.225C185.224 643.295 148.042 618.482 116.726 587.201C85.4107 555.92 60.5698 518.78 43.6218 477.909C26.6752 437.04 17.95 393.238 17.95 349.002L17.9568 346.929C18.225 303.398 26.94 260.325 43.6218 220.095C60.5698 179.224 85.4106 142.083 116.726 110.802C148.042 79.5209 185.224 54.7075 226.14 37.7783C267.055 20.8504 310.907 12.1348 355.192 12.1348ZM355.192 81.7461C320.058 81.7461 285.264 88.6571 252.804 102.087C220.345 115.518 190.848 135.207 166.005 160.023C141.161 184.84 121.449 214.303 108.004 246.727C94.5588 279.151 87.6404 313.907 87.6404 349.002C87.6404 384.097 94.5589 418.853 108.004 451.276C121.449 483.7 141.161 513.163 166.005 537.979C190.848 562.796 220.345 582.485 252.804 595.916C285.264 609.346 320.058 616.257 355.192 616.257C390.324 616.257 425.113 609.345 457.571 595.916C490.032 582.485 519.534 562.796 544.379 537.979C569.222 513.163 588.935 483.7 602.381 451.276C615.825 418.853 622.744 384.097 622.744 349.002C622.744 313.908 615.824 279.158 602.381 246.735C588.935 214.31 569.223 184.84 544.379 160.023C519.535 135.207 490.039 115.518 457.58 102.087C425.12 88.6571 390.326 81.7461 355.192 81.7461ZM425.422 278.556L425.502 278.771L425.717 278.851L615.499 349.001L425.717 419.152L425.502 419.231L425.422 419.447L355.192 609.021L284.963 419.447L284.883 419.231L284.667 419.152L94.8835 349.001L284.667 278.851L284.883 278.771L284.963 278.556L355.192 88.9805L425.422 278.556Z" stroke="#333333"/>
</svg>
