<svg width="39" height="39" viewBox="0 0 39 39" fill="none" xmlns="http://www.w3.org/2000/svg">
<path d="M19.3548 0.166992C21.8965 0.166993 24.4131 0.667187 26.7613 1.6387C29.1095 2.6103 31.2435 4.03437 33.0407 5.82964C34.838 7.62491 36.2637 9.75649 37.2363 12.1021C38.2089 14.4477 38.7097 16.9615 38.7097 19.5003C38.7097 22.0391 38.2089 24.553 37.2363 26.8985C36.2637 29.2442 34.838 31.3757 33.0407 33.171C31.2435 34.9663 29.1095 36.3904 26.7613 37.3619C24.4131 38.3335 21.8965 38.8337 19.3548 38.8337C16.8132 38.8337 14.2966 38.3335 11.9484 37.3619C9.60016 36.3904 7.46621 34.9663 5.66895 33.171C3.87168 31.3757 2.44602 29.2442 1.47335 26.8985C0.500751 24.553 0 22.0391 0 19.5003C3.69915e-07 16.9615 0.500751 14.4477 1.47335 12.1021C2.44602 9.75649 3.87168 7.6249 5.66895 5.82964C7.46621 4.03437 9.60016 2.61029 11.9484 1.6387C14.2966 0.667187 16.8132 0.166992 19.3548 0.166992ZM19.3548 4.21349C17.3452 4.21349 15.355 4.6088 13.4983 5.37699C11.6416 6.14522 9.95448 7.27146 8.53342 8.69093C7.11237 10.1104 5.98488 11.7957 5.21579 13.6503C4.44675 15.5049 4.051 17.4929 4.051 19.5003C4.051 21.5078 4.44675 23.4957 5.21579 25.3504C5.98488 27.205 7.11237 28.8902 8.53342 30.3097C9.95448 31.7292 11.6416 32.8554 13.4983 33.6237C15.355 34.3918 17.3452 34.7872 19.3548 34.7872C21.3644 34.7872 23.3543 34.3918 25.2109 33.6237C27.0677 32.8554 28.7552 31.7292 30.1763 30.3097C31.5973 28.8902 32.7248 27.205 33.4939 25.3504C34.2629 23.4957 34.6587 21.5078 34.6587 19.5003C34.6587 17.493 34.2629 15.5053 33.4939 13.6508C32.7248 11.7961 31.5973 10.1104 30.1763 8.69093C28.7552 7.27146 27.0681 6.14522 25.2114 5.37699C23.3547 4.6088 21.3645 4.21349 19.3548 4.21349ZM23.4063 15.4534L34.3548 19.5003L23.4063 23.5473L19.3548 34.4837L15.3034 23.5473L4.35484 19.5003L15.3034 15.4534L19.3548 4.51699L23.4063 15.4534Z" fill="#121212"/>
</svg>
